# xmcd CD database file
#
# Track frame offsets:
#	150
#	19048
#	37688
#	61198
#	79410
#	97643
#	112468
#	128305
#
# Disc length: 1920 seconds
#
# Revision: 1
# Processed by: cddbd v1.5.1PL2 Copyright (c) Steve Scherf et al.
# Submitted via: CDex 1.51
#
DISCID=54077e08
DTITLE=La Pandylla - Sacúdete
DYEAR=1999
DGENRE=Salsa
TTITLE0=Sacúdete
TTITLE1=And I love her
TTITLE2=Ay papá fracasé
TTITLE3=Un día de sol
TTITLE4=Me pongo light
TTITLE5=Ya metí la pata
TTITLE6=Ahora
TTITLE7=Fuego en los pies
EXTD=YEAR: 1999
EXTT0=
EXTT1=
EXTT2=
EXTT3=
EXTT4=
EXTT5=
EXTT6=
EXTT7=
PLAYORDER=
